<?xml version="1.0" encoding="UTF-8" standalone="no"?>
<!-- Created with Inkscape (http://www.inkscape.org/) -->

<svg
   xmlns:dc="http://purl.org/dc/elements/1.1/"
   xmlns:cc="http://creativecommons.org/ns#"
   xmlns:rdf="http://www.w3.org/1999/02/22-rdf-syntax-ns#"
   xmlns:svg="http://www.w3.org/2000/svg"
   xmlns="http://www.w3.org/2000/svg"
   xmlns:sodipodi="http://sodipodi.sourceforge.net/DTD/sodipodi-0.dtd"
   xmlns:inkscape="http://www.inkscape.org/namespaces/inkscape"
   width="510"
   height="410.14169"
   id="svg4209"
   version="1.1"
   inkscape:version="0.48.5 r10040"
   sodipodi:docname="New document 2">
  <defs
     id="defs4211" />
  <sodipodi:namedview
     id="base"
     pagecolor="#ffffff"
     bordercolor="#666666"
     borderopacity="1.0"
     inkscape:pageopacity="0.0"
     inkscape:pageshadow="2"
     inkscape:zoom="0.55779275"
     inkscape:cx="418.47584"
     inkscape:cy="188.39481"
     inkscape:document-units="px"
     inkscape:current-layer="layer1"
     showgrid="false"
     inkscape:window-width="1280"
     inkscape:window-height="778"
     inkscape:window-x="0"
     inkscape:window-y="0"
     inkscape:window-maximized="1"
     fit-margin-top="5"
     fit-margin-left="5"
     fit-margin-right="5"
     fit-margin-bottom="5" />
  <metadata
     id="metadata4214">
    <rdf:RDF>
      <cc:Work
         rdf:about="">
        <dc:format>image/svg+xml</dc:format>
        <dc:type
           rdf:resource="http://purl.org/dc/dcmitype/StillImage" />
        <dc:title></dc:title>
      </cc:Work>
    </rdf:RDF>
  </metadata>
  <g
     inkscape:label="Layer 1"
     inkscape:groupmode="layer"
     id="layer1"
     transform="translate(46.428596,-304.43422)">
    <g
       id="g4194"
       transform="matrix(5.2352066,0,0,-5.2352066,-1271.3998,2693.5748)">
      <path
         inkscape:connector-curvature="0"
         id="path108"
         style="fill:none;stroke:#000000;stroke-width:0.72920525;stroke-linecap:round;stroke-linejoin:round;stroke-miterlimit:4;stroke-opacity:1;stroke-dasharray:none"
         d="m 235.30685,455.04065 94.77801,0 0,-75.70363 -94.77801,0 0,75.70363 z" />
      <path
         inkscape:connector-curvature="0"
         id="path112"
         style="fill:none;stroke:#000000;stroke-width:0.72920525;stroke-linecap:round;stroke-linejoin:round;stroke-miterlimit:4;stroke-opacity:1;stroke-dasharray:none"
         d="m 269.68162,449.41809 0,-5.57569 -20.74697,0 0,-47.52497 67.51339,0 0,47.52497 -20.91441,0 0,5.57569 -25.85201,0 z" />
      <path
         inkscape:connector-curvature="0"
         id="path116"
         style="fill:none;stroke:#000000;stroke-width:0.72920525;stroke-linecap:round;stroke-linejoin:round;stroke-miterlimit:4;stroke-opacity:1;stroke-dasharray:none"
         d="m 248.95269,443.85337 14.67648,0 0,-11.17331 -14.67648,0 0,11.17331 z" />
      <path
         inkscape:connector-curvature="0"
         id="path120"
         style="fill:none;stroke:#000000;stroke-width:0.72920525;stroke-linecap:round;stroke-linejoin:round;stroke-miterlimit:4;stroke-opacity:1;stroke-dasharray:none"
         d="m 301.77658,443.85337 14.6504,0 0,-11.18428 -14.6504,0 0,11.18428 z" />
      <path
         inkscape:connector-curvature="0"
         id="path124"
         style="fill:none;stroke:#000000;stroke-width:0.72920525;stroke-linecap:round;stroke-linejoin:round;stroke-miterlimit:4;stroke-opacity:1;stroke-dasharray:none"
         d="m 259.80139,417.4372 3.14102,0 0,-21.12476 -3.14102,0 0,21.12476 z m 6.09356,0 3.13701,0 0,-21.12476 -3.13701,0 0,21.12476 z m 6.09356,0 3.13701,0 0,-21.12476 -3.13701,0 0,21.12476 z m 6.09256,0 3.13801,0 0,-21.12476 -3.13801,0 0,21.12476 z m 6.27603,0 3.13701,0 0,-21.12476 -3.13701,0 0,21.12476 z m 6.00032,0 3.13901,0 0,-21.12476 -3.13901,0 0,21.12476 z m 6.00132,0 3.13701,0 0,-21.12476 -3.13701,0 0,21.12476 z m 6.09256,0 3.13801,0 0,-21.12476 -3.13801,0 0,21.12476 z" />
      <path
         d="m 305.191,420.51 -2.317,0 0,0.408 0.924,0 0,3.164 -0.949,-0.28 0,0.444 1.417,0.429 0,-3.757 0.925,0"
         style="fill:#000000;fill-opacity:1;fill-rule:nonzero;stroke:none"
         id="path126"
         inkscape:connector-curvature="0" />
      <path
         d="m 299.143,420.51 -2.467,0 0,0.415 1.193,1.191 c 0.303,0.297 0.52,0.549 0.654,0.755 0.127,0.2 0.192,0.416 0.195,0.647 -0.003,0.231 -0.072,0.412 -0.202,0.543 -0.139,0.128 -0.333,0.192 -0.58,0.195 -0.366,-0.003 -0.716,-0.156 -1.049,-0.465 l 0,0.491 c 0.318,0.245 0.689,0.366 1.117,0.369 0.362,-0.003 0.651,-0.099 0.861,-0.295 0.207,-0.198 0.31,-0.465 0.314,-0.792 -0.004,-0.263 -0.075,-0.518 -0.218,-0.767 -0.142,-0.252 -0.404,-0.561 -0.778,-0.926 l -0.947,-0.928 0,-0.014 1.907,0"
         style="fill:#000000;fill-opacity:1;fill-rule:nonzero;stroke:none"
         id="path128"
         inkscape:connector-curvature="0" />
      <path
         d="m 290.745,420.659 0,0.505 c 0.278,-0.225 0.591,-0.335 0.945,-0.331 0.282,-0.004 0.51,0.068 0.685,0.213 0.168,0.138 0.254,0.331 0.257,0.576 -0.003,0.53 -0.385,0.795 -1.143,0.798 l -0.339,0 0,0.395 0.325,0 c 0.676,-0.003 1.014,0.245 1.014,0.749 0,0.458 -0.26,0.689 -0.775,0.692 -0.292,-0.003 -0.564,-0.098 -0.812,-0.29 l 0,0.455 c 0.257,0.152 0.567,0.227 0.931,0.23 0.338,-0.003 0.613,-0.092 0.824,-0.273 0.203,-0.182 0.307,-0.415 0.311,-0.696 -0.004,-0.541 -0.275,-0.885 -0.822,-1.035 l 0,-0.013 c 0.293,-0.032 0.525,-0.136 0.704,-0.31 0.171,-0.177 0.261,-0.397 0.261,-0.661 0,-0.368 -0.133,-0.663 -0.396,-0.886 -0.265,-0.22 -0.615,-0.331 -1.043,-0.334 -0.392,0.003 -0.7,0.074 -0.927,0.216"
         style="fill:#000000;fill-opacity:1;fill-rule:nonzero;stroke:none"
         id="path130"
         inkscape:connector-curvature="0" />
      <path
         d="m 287.381,421.593 -0.525,0 0,-1.083 -0.464,0 0,1.083 -1.924,0 0,0.302 1.825,2.688 0.563,0 0,-2.614 0.525,0 0,-0.376 z m -0.989,0.376 0,1.762 c -0.004,0.124 0,0.266 0.014,0.423 l -0.014,0 c -0.028,-0.072 -0.083,-0.179 -0.157,-0.313 l -1.256,-1.872"
         style="fill:#000000;fill-opacity:1;fill-rule:nonzero;stroke:none"
         id="path132"
         inkscape:connector-curvature="0" />
      <path
         d="m 278.501,420.609 0,0.494 c 0.277,-0.185 0.564,-0.274 0.852,-0.27 0.29,-0.004 0.52,0.078 0.699,0.245 0.176,0.16 0.264,0.376 0.268,0.646 -0.004,0.267 -0.092,0.472 -0.271,0.626 -0.181,0.148 -0.443,0.227 -0.779,0.227 -0.118,0 -0.331,-0.014 -0.642,-0.036 l 0,2.042 1.981,0 0,-0.419 -1.538,0 0,-1.193 c 0.125,0.008 0.239,0.011 0.349,0.011 0.437,0 0.775,-0.111 1.015,-0.331 0.239,-0.22 0.36,-0.522 0.36,-0.898 0,-0.397 -0.128,-0.714 -0.386,-0.951 -0.257,-0.238 -0.61,-0.356 -1.06,-0.359 -0.378,0.003 -0.663,0.056 -0.848,0.166"
         style="fill:#000000;fill-opacity:1;fill-rule:nonzero;stroke:none"
         id="path134"
         inkscape:connector-curvature="0" />
      <path
         d="m 274.609,424.537 0,-0.44 c -0.214,0.103 -0.439,0.156 -0.668,0.159 -0.368,-0.003 -0.655,-0.163 -0.875,-0.482 -0.217,-0.324 -0.328,-0.753 -0.324,-1.292 l 0.01,0 c 0.187,0.382 0.5,0.574 0.939,0.578 0.354,-0.004 0.64,-0.117 0.854,-0.344 0.21,-0.228 0.314,-0.533 0.318,-0.917 -0.004,-0.402 -0.125,-0.728 -0.364,-0.981 -0.247,-0.248 -0.554,-0.372 -0.922,-0.375 -0.414,0.003 -0.736,0.163 -0.972,0.486 -0.234,0.323 -0.351,0.781 -0.349,1.375 -0.002,0.71 0.15,1.278 0.461,1.708 0.302,0.422 0.706,0.636 1.214,0.639 0.281,-0.003 0.51,-0.039 0.678,-0.114 z m -1.021,-1.875 c -0.246,0 -0.443,-0.082 -0.589,-0.245 -0.154,-0.163 -0.228,-0.355 -0.225,-0.575 -0.003,-0.277 0.071,-0.516 0.221,-0.714 0.146,-0.199 0.347,-0.299 0.596,-0.295 0.236,-0.004 0.424,0.081 0.571,0.255 0.143,0.171 0.215,0.388 0.218,0.655 -0.003,0.284 -0.071,0.511 -0.21,0.674 -0.139,0.163 -0.336,0.245 -0.582,0.245"
         style="fill:#000000;fill-opacity:1;fill-rule:nonzero;stroke:none"
         id="path136"
         inkscape:connector-curvature="0" />
      <path
         d="m 268.783,424.438 -1.621,-3.928 -0.485,0 1.532,3.654 -2.063,0 0,0.419 2.637,0"
         style="fill:#000000;fill-opacity:1;fill-rule:nonzero;stroke:none"
         id="path138"
         inkscape:connector-curvature="0" />
      <path
         d="m 260.965,422.647 0,0.011 c -0.492,0.224 -0.739,0.555 -0.735,0.988 -0.004,0.29 0.11,0.533 0.336,0.721 0.222,0.188 0.509,0.281 0.867,0.284 0.321,-0.003 0.581,-0.088 0.788,-0.263 0.201,-0.177 0.304,-0.405 0.308,-0.679 -0.004,-0.454 -0.257,-0.805 -0.758,-1.051 l 0,-0.011 c 0.593,-0.216 0.893,-0.582 0.897,-1.104 -0.004,-0.337 -0.125,-0.607 -0.367,-0.802 -0.244,-0.198 -0.583,-0.295 -1.014,-0.298 -0.353,0.003 -0.643,0.1 -0.868,0.294 -0.229,0.195 -0.343,0.451 -0.339,0.768 -0.004,0.522 0.293,0.901 0.885,1.142 z m 1.086,1.006 c -0.003,0.185 -0.061,0.33 -0.179,0.44 -0.118,0.107 -0.278,0.16 -0.482,0.163 -0.193,-0.003 -0.358,-0.06 -0.485,-0.17 -0.137,-0.113 -0.2,-0.256 -0.196,-0.43 -0.004,-0.355 0.216,-0.621 0.663,-0.799 0.451,0.181 0.676,0.448 0.679,0.796 z m -0.708,-1.229 c -0.528,-0.209 -0.788,-0.508 -0.784,-0.899 -0.004,-0.203 0.071,-0.368 0.229,-0.496 0.15,-0.135 0.349,-0.2 0.598,-0.196 0.233,-0.004 0.425,0.061 0.575,0.192 0.146,0.123 0.222,0.288 0.226,0.486 -0.004,0.405 -0.287,0.707 -0.844,0.913"
         style="fill:#000000;fill-opacity:1;fill-rule:nonzero;stroke:none"
         id="path140"
         inkscape:connector-curvature="0" />
    </g>
  </g>
</svg>
