<?xml version="1.0" encoding="UTF-8" standalone="no"?>
<!-- Created with Inkscape (http://www.inkscape.org/) -->

<svg
   xmlns:dc="http://purl.org/dc/elements/1.1/"
   xmlns:cc="http://creativecommons.org/ns#"
   xmlns:rdf="http://www.w3.org/1999/02/22-rdf-syntax-ns#"
   xmlns:svg="http://www.w3.org/2000/svg"
   xmlns="http://www.w3.org/2000/svg"
   xmlns:sodipodi="http://sodipodi.sourceforge.net/DTD/sodipodi-0.dtd"
   xmlns:inkscape="http://www.inkscape.org/namespaces/inkscape"
   width="510.10596"
   height="238.20618"
   id="svg11206"
   version="1.1"
   inkscape:version="0.48.5 r10040"
   sodipodi:docname="New document 10">
  <defs
     id="defs11208" />
  <sodipodi:namedview
     id="base"
     pagecolor="#ffffff"
     bordercolor="#666666"
     borderopacity="1.0"
     inkscape:pageopacity="0.0"
     inkscape:pageshadow="2"
     inkscape:zoom="0.35"
     inkscape:cx="392.91546"
     inkscape:cy="24.786767"
     inkscape:document-units="px"
     inkscape:current-layer="layer1"
     showgrid="false"
     fit-margin-top="5"
     fit-margin-left="5"
     fit-margin-right="5"
     fit-margin-bottom="5"
     inkscape:window-width="1280"
     inkscape:window-height="778"
     inkscape:window-x="0"
     inkscape:window-y="0"
     inkscape:window-maximized="1" />
  <metadata
     id="metadata11211">
    <rdf:RDF>
      <cc:Work
         rdf:about="">
        <dc:format>image/svg+xml</dc:format>
        <dc:type
           rdf:resource="http://purl.org/dc/dcmitype/StillImage" />
        <dc:title></dc:title>
      </cc:Work>
    </rdf:RDF>
  </metadata>
  <g
     inkscape:label="Layer 1"
     inkscape:groupmode="layer"
     id="layer1"
     transform="translate(17.915461,-318.94277)">
    <g
       id="g11067"
       transform="matrix(4.1002794,0,0,-4.1002794,-623.47269,2060.4111)">
      <path
         inkscape:connector-curvature="0"
         d="m 157.644,375.868 104.86,0 0,39.6168 -104.86,0 0,-39.6168 z"
         style="fill:#ffffff;fill-opacity:1;fill-rule:nonzero;stroke:none"
         id="path4483" />
      <path
         id="path4487"
         style="fill:none;stroke:#000000;stroke-width:0.42763856;stroke-linecap:round;stroke-linejoin:round;stroke-miterlimit:4.46154022;stroke-opacity:1;stroke-dasharray:none"
         d="m 157.64255,375.86736 104.86076,0 0,39.61688 -104.86076,0 0,-39.61688 z"
         inkscape:connector-curvature="0" />
      <path
         inkscape:connector-curvature="0"
         d="m 161.267,379.066 97.6145,0 0,33.2219 -97.6145,0 0,-33.2219 z"
         style="fill:#ffffff;fill-opacity:1;fill-rule:nonzero;stroke:none"
         id="path4489" />
      <path
         id="path4493"
         style="fill:none;stroke:#000000;stroke-width:0.42763856;stroke-linecap:round;stroke-linejoin:round;stroke-miterlimit:4.46154022;stroke-opacity:1;stroke-dasharray:none"
         d="m 161.26682,379.06459 97.6142,0 0,33.22242 -97.6142,0 0,-33.22242 z"
         inkscape:connector-curvature="0" />
      <path
         inkscape:connector-curvature="0"
         d="m 254.112,419.014 c 0,2.129 -1.438,4.261 -3.594,4.261 l -80.533,0 c -2.156,0 -3.594,-2.132 -3.594,-4.261 l 0,-3.552 87.721,0 0,3.552"
         style="fill:#ffffff;fill-opacity:1;fill-rule:nonzero;stroke:none"
         id="path4495" />
      <path
         id="path4499"
         style="fill:none;stroke:#000000;stroke-width:0.42763826;stroke-linecap:round;stroke-linejoin:round;stroke-miterlimit:4.46154022;stroke-opacity:1;stroke-dasharray:none"
         d="m 254.1118,419.0129 c 0,2.12967 -1.43924,4.26134 -3.5956,4.26134 l -80.53244,0 c -2.15536,0 -3.5946,-2.13167 -3.5946,-4.26134 l 0,-3.55045 87.72264,0 0,3.55045"
         inkscape:connector-curvature="0" />
      <path
         inkscape:connector-curvature="0"
         d="m 173.582,375.683 16.5375,0 0,5.68398 -16.5375,0 0,-5.68398 z"
         style="fill:#ffffff;fill-opacity:1;fill-rule:nonzero;stroke:none"
         id="path4501" />
      <path
         id="path4505"
         style="fill:none;stroke:#000000;stroke-width:0.42763826;stroke-linecap:butt;stroke-linejoin:miter;stroke-miterlimit:4.46154022;stroke-opacity:1;stroke-dasharray:none"
         d="m 173.58137,375.68364 16.53775,0 0,5.68312 -16.53775,0 0,-5.68312 z"
         inkscape:connector-curvature="0" />
      <path
         inkscape:connector-curvature="0"
         d="m 173.582,375.683 16.5375,0 0,5.68398 -16.5375,0 0,-5.68398 z"
         style="fill:#ffffff;fill-opacity:1;fill-rule:nonzero;stroke:none"
         id="path4507" />
      <path
         id="path4511"
         style="fill:none;stroke:#000000;stroke-width:0.42763826;stroke-linecap:round;stroke-linejoin:round;stroke-miterlimit:4.46154022;stroke-opacity:1;stroke-dasharray:none"
         d="m 173.58137,375.68364 16.53775,0 0,5.68312 -16.53775,0 0,-5.68312 z"
         inkscape:connector-curvature="0" />
      <path
         inkscape:connector-curvature="0"
         d="m 232.548,375.683 15.8184,0 0,5.68398 -15.8184,0 0,-5.68398 z"
         style="fill:#ffffff;fill-opacity:1;fill-rule:nonzero;stroke:none"
         id="path4513" />
      <path
         id="path4517"
         style="fill:none;stroke:#000000;stroke-width:0.42763826;stroke-linecap:butt;stroke-linejoin:miter;stroke-miterlimit:4.46154022;stroke-opacity:1;stroke-dasharray:none"
         d="m 232.54721,375.68364 15.81864,0 0,5.68312 -15.81864,0 0,-5.68312 z"
         inkscape:connector-curvature="0" />
      <path
         inkscape:connector-curvature="0"
         d="m 232.548,375.683 15.8184,0 0,5.68398 -15.8184,0 0,-5.68398 z"
         style="fill:#ffffff;fill-opacity:1;fill-rule:nonzero;stroke:none"
         id="path4519" />
      <path
         id="path4523"
         style="fill:none;stroke:#000000;stroke-width:0.42763826;stroke-linecap:butt;stroke-linejoin:miter;stroke-miterlimit:4.46154022;stroke-opacity:1;stroke-dasharray:none"
         d="m 232.54721,375.68364 15.81864,0 0,5.68312 -15.81864,0 0,-5.68312 z"
         inkscape:connector-curvature="0" />
      <path
         inkscape:connector-curvature="0"
         d="m 180.771,390.636 7.91016,0 0,4.97266 -7.91016,0 0,-4.97266 z"
         style="fill:#ffffff;fill-opacity:1;fill-rule:nonzero;stroke:none"
         id="path4525" />
      <path
         id="path4529"
         style="fill:none;stroke:#000000;stroke-width:0.42763826;stroke-linecap:round;stroke-linejoin:round;stroke-miterlimit:4.46154022;stroke-opacity:1;stroke-dasharray:none"
         d="m 180.77056,390.63626 7.91032,0 0,4.97223 -7.91032,0 0,-4.97223 z"
         inkscape:connector-curvature="0" />
      <path
         inkscape:connector-curvature="0"
         d="m 180.771,390.636 7.91016,0 0,4.97266 -7.91016,0 0,-4.97266 z"
         style="fill:#ffffff;fill-opacity:1;fill-rule:nonzero;stroke:none"
         id="path4531" />
      <path
         id="path4535"
         style="fill:none;stroke:#000000;stroke-width:0.42763826;stroke-linecap:round;stroke-linejoin:round;stroke-miterlimit:4.46154022;stroke-opacity:1;stroke-dasharray:none"
         d="m 180.77056,390.63626 7.91032,0 0,4.97223 -7.91032,0 0,-4.97223 z"
         inkscape:connector-curvature="0" />
      <path
         inkscape:connector-curvature="0"
         d="m 231.823,390.636 7.90781,0 0,4.97266 -7.90781,0 0,-4.97266 z"
         style="fill:#ffffff;fill-opacity:1;fill-rule:nonzero;stroke:none"
         id="path4537" />
      <path
         id="path4541"
         style="fill:none;stroke:#000000;stroke-width:0.42763826;stroke-linecap:round;stroke-linejoin:round;stroke-miterlimit:4.46154022;stroke-opacity:1;stroke-dasharray:none"
         d="m 231.82308,390.63626 7.90832,0 0,4.97223 -7.90832,0 0,-4.97223 z"
         inkscape:connector-curvature="0" />
      <path
         inkscape:connector-curvature="0"
         d="m 231.823,390.636 7.90781,0 0,4.97266 -7.90781,0 0,-4.97266 z"
         style="fill:#ffffff;fill-opacity:1;fill-rule:nonzero;stroke:none"
         id="path4543" />
      <path
         id="path4547"
         style="fill:none;stroke:#000000;stroke-width:0.42763826;stroke-linecap:round;stroke-linejoin:round;stroke-miterlimit:4.46154022;stroke-opacity:1;stroke-dasharray:none"
         d="m 231.82308,390.63626 7.90832,0 0,4.97223 -7.90832,0 0,-4.97223 z"
         inkscape:connector-curvature="0" />
      <path
         inkscape:connector-curvature="0"
         d="m 169.985,398.449 80.5328,0 0,5.68398 -80.5328,0 0,-5.68398 z"
         style="fill:#ffffff;fill-opacity:1;fill-rule:nonzero;stroke:none"
         id="path4549" />
      <path
         id="path4553"
         style="fill:none;stroke:#000000;stroke-width:0.42763826;stroke-linecap:round;stroke-linejoin:round;stroke-miterlimit:4.46154022;stroke-opacity:1;stroke-dasharray:none"
         d="m 169.98376,398.45005 80.53244,0 0,5.68211 -80.53244,0 0,-5.68211 z"
         inkscape:connector-curvature="0" />
      <path
         inkscape:connector-curvature="0"
         d="m 169.985,404.134 80.533,0 2.875,2.839 -86.283,0 2.875,-2.839"
         style="fill:#ffffff;fill-opacity:1;fill-rule:nonzero;stroke:none"
         id="path4555" />
      <path
         id="path4559"
         style="fill:none;stroke:#000000;stroke-width:0.42763826;stroke-linecap:round;stroke-linejoin:round;stroke-miterlimit:4.46154022;stroke-opacity:1;stroke-dasharray:none"
         d="m 169.98376,404.13216 80.53244,0 2.87648,2.84156 -86.2834,0 2.87448,-2.84156 z"
         inkscape:connector-curvature="0" />
      <path
         inkscape:connector-curvature="0"
         d="m 167.11,395.609 86.283,0 -2.875,2.84 -80.533,0 -2.875,-2.84"
         style="fill:#ffffff;fill-opacity:1;fill-rule:nonzero;stroke:none"
         id="path4561" />
      <path
         id="path4565"
         style="fill:none;stroke:#000000;stroke-width:0.42763826;stroke-linecap:round;stroke-linejoin:round;stroke-miterlimit:4.46154022;stroke-opacity:1;stroke-dasharray:none"
         d="m 167.10928,395.60849 86.2834,0 -2.87648,2.84156 -80.53244,0 -2.87448,-2.84156 z"
         inkscape:connector-curvature="0" />
      <path
         inkscape:connector-curvature="0"
         d="m 167.11,395.609 2.875,2.84 0,5.685 -2.875,2.839 0,-11.364"
         style="fill:#ffffff;fill-opacity:1;fill-rule:nonzero;stroke:none"
         id="path4567" />
      <path
         id="path4571"
         style="fill:none;stroke:#000000;stroke-width:0.42763826;stroke-linecap:round;stroke-linejoin:round;stroke-miterlimit:4.46154022;stroke-opacity:1;stroke-dasharray:none"
         d="m 167.10928,395.60849 2.87448,2.84156 0,5.68211 -2.87448,2.84156 0,-11.36523 z"
         inkscape:connector-curvature="0" />
      <path
         inkscape:connector-curvature="0"
         d="m 253.393,395.609 -2.875,2.84 0,5.685 2.875,2.839 0,-11.364"
         style="fill:#ffffff;fill-opacity:1;fill-rule:nonzero;stroke:none"
         id="path4573" />
      <path
         id="path4577"
         style="fill:none;stroke:#000000;stroke-width:0.42763826;stroke-linecap:round;stroke-linejoin:round;stroke-miterlimit:4.46154022;stroke-opacity:1;stroke-dasharray:none"
         d="m 253.39268,395.60849 -2.87648,2.84156 0,5.68211 2.87648,2.84156 0,-11.36523 z"
         inkscape:connector-curvature="0" />
      <path
         inkscape:connector-curvature="0"
         d="m 254.112,419.014 c 0,2.129 -1.438,4.261 -3.594,4.261 l -80.533,0 c -2.156,0 -3.594,-2.132 -3.594,-4.261 l 0,-3.552 87.721,0 0,3.552"
         style="fill:#ffffff;fill-opacity:1;fill-rule:nonzero;stroke:none"
         id="path4579" />
      <path
         id="path4583"
         style="fill:none;stroke:#000000;stroke-width:0.42763826;stroke-linecap:round;stroke-linejoin:round;stroke-miterlimit:4.46154022;stroke-opacity:1;stroke-dasharray:none"
         d="m 254.1118,419.0129 c 0,2.12967 -1.43924,4.26134 -3.5956,4.26134 l -80.53244,0 c -2.15536,0 -3.5946,-2.13167 -3.5946,-4.26134 l 0,-3.55045 87.72264,0 0,3.55045 z"
         inkscape:connector-curvature="0" />
      <path
         inkscape:connector-curvature="0"
         d="m 254.112,371.605 c 0,-2.13 -1.438,-3.551 -3.594,-3.551 l -80.533,0 c -2.156,0 -3.594,1.421 -3.594,3.551 l 0,4.263 87.721,0 0,-4.263"
         style="fill:#ffffff;fill-opacity:1;fill-rule:nonzero;stroke:none"
         id="path4585" />
      <path
         id="path4589"
         style="fill:none;stroke:#000000;stroke-width:0.42763826;stroke-linecap:butt;stroke-linejoin:miter;stroke-miterlimit:4.46154022;stroke-opacity:1;stroke-dasharray:none"
         d="m 254.1118,371.60302 c 0,-2.12767 -1.43924,-3.54845 -3.5956,-3.54845 l -80.53244,0 c -2.15536,0 -3.5946,1.42078 -3.5946,3.54845 l 0,4.26433 87.72264,0 0,-4.26433 z"
         inkscape:connector-curvature="0" />
      <path
         inkscape:connector-curvature="0"
         d="m 157.764,385.578 0,24.199 -4.316,0 c -2.157,0 -4.313,-1.42 -4.313,-3.549 l 0,-20.65 c 0,-2.131 2.156,-4.261 4.313,-4.261 l 4.316,0 0,4.261"
         style="fill:#ffffff;fill-opacity:1;fill-rule:nonzero;stroke:none"
         id="path4591" />
      <path
         id="path4595"
         style="fill:none;stroke:#000000;stroke-width:0.42763826;stroke-linecap:butt;stroke-linejoin:miter;stroke-miterlimit:4.46154022;stroke-opacity:1;stroke-dasharray:none"
         d="m 157.76373,385.57817 0,24.20017 -4.31673,0 c -2.15635,0 -4.31271,-1.42178 -4.31271,-3.55045 l 0,-20.64972 c 0,-2.13266 2.15636,-4.26134 4.31271,-4.26134 l 4.31673,0 0,4.26134 z"
         inkscape:connector-curvature="0" />
      <path
         inkscape:connector-curvature="0"
         d="m 262.741,385.578 0,24.199 3.594,0 c 2.877,0 4.314,-1.42 4.314,-3.549 l 0,-20.65 c 0,-2.131 -1.437,-4.261 -4.314,-4.261 l -3.594,0 0,4.261"
         style="fill:#ffffff;fill-opacity:1;fill-rule:nonzero;stroke:none"
         id="path4597" />
      <path
         id="path4601"
         style="fill:none;stroke:#000000;stroke-width:0.42763826;stroke-linecap:butt;stroke-linejoin:miter;stroke-miterlimit:4.46154022;stroke-opacity:1;stroke-dasharray:none"
         d="m 262.74124,385.57817 0,24.20017 3.5936,0 c 2.87547,0 4.31472,-1.42178 4.31472,-3.55045 l 0,-20.64972 c 0,-2.13266 -1.43925,-4.26134 -4.31472,-4.26134 l -3.5936,0 0,4.26134 z"
         inkscape:connector-curvature="0" />
      <path
         inkscape:connector-curvature="0"
         d="m 197.285,390.736 7.91055,0 0,4.97305 -7.91055,0 0,-4.97305 z"
         style="fill:#ffffff;fill-opacity:1;fill-rule:nonzero;stroke:none"
         id="path4603" />
      <path
         id="path4607"
         style="fill:none;stroke:#000000;stroke-width:0.42763826;stroke-linecap:round;stroke-linejoin:round;stroke-miterlimit:4.46154022;stroke-opacity:1;stroke-dasharray:none"
         d="m 197.28428,390.73511 7.91133,0 0,4.97223 -7.91133,0 0,-4.97223 z"
         inkscape:connector-curvature="0" />
      <path
         inkscape:connector-curvature="0"
         d="m 215.215,390.712 7.91055,0 0,4.97188 -7.91055,0 0,-4.97188 z"
         style="fill:#ffffff;fill-opacity:1;fill-rule:nonzero;stroke:none"
         id="path4609" />
      <path
         id="path4613"
         style="fill:none;stroke:#000000;stroke-width:0.42763826;stroke-linecap:round;stroke-linejoin:round;stroke-miterlimit:4.46154022;stroke-opacity:1;stroke-dasharray:none"
         d="m 215.21521,390.71115 7.91032,0 0,4.97322 -7.91032,0 0,-4.97322 z"
         inkscape:connector-curvature="0" />
      <path
         inkscape:connector-curvature="0"
         d="m 186.799,384.368 -3.319,0 0,0.914 1.087,0 0,3.256 -1.116,-0.24 0,0.934 2.268,0.455 0,-4.405 1.08,0"
         style="fill:#000000;fill-opacity:1;fill-rule:nonzero;stroke:none"
         id="path4615" />
      <path
         inkscape:connector-curvature="0"
         d="m 200.964,385.345 0,-0.02 2.13,0 0,-0.957 -3.454,0 0,0.897 1.504,1.436 c 0.3,0.287 0.515,0.529 0.637,0.728 0.124,0.195 0.184,0.4 0.186,0.616 -0.002,0.48 -0.262,0.72 -0.779,0.723 -0.452,-0.003 -0.884,-0.18 -1.297,-0.534 l 0,1.014 c 0.455,0.291 0.97,0.438 1.546,0.439 0.535,-0.001 0.954,-0.137 1.258,-0.403 0.3,-0.271 0.451,-0.634 0.451,-1.086 0,-0.616 -0.369,-1.246 -1.103,-1.895"
         style="fill:#000000;fill-opacity:1;fill-rule:nonzero;stroke:none"
         id="path4617" />
      <path
         inkscape:connector-curvature="0"
         d="m 217.783,384.586 0,1.003 c 0.347,-0.258 0.757,-0.387 1.228,-0.384 0.296,-0.003 0.527,0.06 0.691,0.188 0.164,0.125 0.248,0.303 0.248,0.532 0,0.231 -0.102,0.411 -0.305,0.539 -0.205,0.125 -0.487,0.187 -0.843,0.19 l -0.47,0 0,0.881 0.434,0 c 0.682,-0.002 1.022,0.225 1.025,0.681 -0.003,0.424 -0.264,0.638 -0.787,0.638 -0.353,0 -0.695,-0.115 -1.025,-0.34 l 0,0.942 c 0.366,0.182 0.798,0.274 1.289,0.276 0.536,-0.002 0.951,-0.122 1.251,-0.362 0.299,-0.24 0.45,-0.553 0.45,-0.936 0,-0.685 -0.347,-1.113 -1.042,-1.285 l 0,-0.018 c 0.37,-0.049 0.663,-0.183 0.878,-0.403 0.213,-0.225 0.322,-0.498 0.322,-0.819 0,-0.489 -0.182,-0.876 -0.539,-1.159 -0.358,-0.284 -0.852,-0.426 -1.485,-0.429 -0.543,0.003 -0.986,0.09 -1.32,0.265"
         style="fill:#000000;fill-opacity:1;fill-rule:nonzero;stroke:none"
         id="path4619" />
      <path
         inkscape:connector-curvature="0"
         d="m 237.18,385.524 -0.63,0 0,-1.113 -1.054,0 0,1.113 -2.287,0 0,0.732 2.201,3.388 1.14,0 0,-3.3 0.63,0 0,-0.82 z m -1.67,2.965 -0.022,0 c -0.036,-0.089 -0.104,-0.224 -0.198,-0.409 l -1.124,-1.736 1.33,0 0,1.644 c 0,0.144 0.003,0.31 0.014,0.501"
         style="fill:#000000;fill-opacity:1;fill-rule:nonzero;stroke:none"
         id="path4621" />
      <path
         inkscape:connector-curvature="0"
         d="m 242.5,399.784 0,0.985 c 0.355,-0.222 0.738,-0.331 1.146,-0.329 0.302,-0.002 0.541,0.071 0.712,0.216 0.17,0.144 0.257,0.34 0.26,0.589 -0.003,0.516 -0.369,0.774 -1.101,0.776 -0.241,-0.002 -0.53,-0.023 -0.869,-0.064 l 0,2.924 2.908,0 0,-0.943 -1.919,0 0,-1.045 c 0.151,0.013 0.298,0.018 0.437,0.02 0.535,-0.002 0.956,-0.143 1.265,-0.425 0.304,-0.284 0.457,-0.662 0.457,-1.135 0,-0.529 -0.182,-0.962 -0.546,-1.296 -0.364,-0.334 -0.854,-0.498 -1.477,-0.5 -0.507,0.002 -0.934,0.075 -1.273,0.227"
         style="fill:#000000;fill-opacity:1;fill-rule:nonzero;stroke:none"
         id="path4623" />
      <path
         inkscape:connector-curvature="0"
         d="m 228.859,404.782 0,-0.964 c -0.266,0.15 -0.557,0.227 -0.871,0.227 -0.389,0 -0.702,-0.149 -0.941,-0.444 -0.237,-0.297 -0.361,-0.693 -0.368,-1.188 l 0.021,0 c 0.251,0.367 0.617,0.553 1.103,0.554 0.436,-10e-4 0.784,-0.15 1.043,-0.445 0.257,-0.299 0.386,-0.693 0.386,-1.177 0,-0.529 -0.171,-0.965 -0.512,-1.312 -0.344,-0.347 -0.779,-0.518 -1.301,-0.52 -0.594,0.002 -1.053,0.213 -1.386,0.638 -0.332,0.424 -0.499,1.021 -0.497,1.79 -0.002,0.905 0.212,1.626 0.64,2.169 0.427,0.538 1.007,0.81 1.739,0.812 0.403,-0.002 0.716,-0.049 0.944,-0.14 z m -1.448,-2.669 c -0.215,0 -0.382,-0.076 -0.508,-0.225 -0.124,-0.147 -0.188,-0.338 -0.188,-0.567 0,-0.258 0.064,-0.474 0.19,-0.654 0.129,-0.183 0.299,-0.274 0.514,-0.271 0.204,-0.003 0.371,0.077 0.496,0.242 0.123,0.16 0.183,0.369 0.186,0.633 -0.003,0.561 -0.233,0.842 -0.69,0.842"
         style="fill:#000000;fill-opacity:1;fill-rule:nonzero;stroke:none"
         id="path4625" />
      <path
         inkscape:connector-curvature="0"
         d="m 211.661,404.3 -1.854,-4.699 -1.222,0 1.867,4.289 -2.447,0 0,0.943 3.656,0"
         style="fill:#000000;fill-opacity:1;fill-rule:nonzero;stroke:none"
         id="path4627" />
      <path
         inkscape:connector-curvature="0"
         d="m 191.657,402.321 0,0.018 c -0.602,0.245 -0.902,0.643 -0.899,1.195 -0.003,0.402 0.158,0.735 0.482,0.995 0.323,0.261 0.739,0.391 1.248,0.393 0.517,-0.002 0.93,-0.125 1.245,-0.367 0.308,-0.245 0.464,-0.56 0.464,-0.946 0,-0.573 -0.331,-0.993 -0.995,-1.261 l 0,-0.016 c 0.355,-0.104 0.629,-0.277 0.828,-0.516 0.193,-0.239 0.293,-0.511 0.296,-0.809 -0.003,-0.462 -0.176,-0.827 -0.515,-1.094 -0.346,-0.267 -0.823,-0.398 -1.435,-0.4 -0.533,0.002 -0.963,0.13 -1.287,0.391 -0.328,0.26 -0.492,0.607 -0.488,1.039 -0.004,0.623 0.35,1.081 1.056,1.378 z m 1.453,1.189 c -0.003,0.177 -0.06,0.32 -0.171,0.426 -0.113,0.103 -0.262,0.155 -0.451,0.158 -0.183,-0.003 -0.334,-0.058 -0.454,-0.167 -0.121,-0.109 -0.182,-0.25 -0.182,-0.422 0,-0.329 0.211,-0.576 0.628,-0.743 0.419,0.173 0.627,0.42 0.63,0.748 z m -0.679,-1.626 c -0.495,-0.196 -0.741,-0.49 -0.738,-0.884 -0.003,-0.193 0.073,-0.349 0.225,-0.471 0.149,-0.125 0.332,-0.188 0.549,-0.185 0.23,-0.003 0.415,0.06 0.559,0.181 0.139,0.121 0.21,0.28 0.212,0.482 -0.002,0.398 -0.272,0.689 -0.807,0.877"
         style="fill:#000000;fill-opacity:1;fill-rule:nonzero;stroke:none"
         id="path4629" />
      <path
         inkscape:connector-curvature="0"
         d="m 169.98,395.827 13.722,0 -2.142,2.495 -9.439,0 -2.141,-2.495"
         style="fill:#ffffff;fill-opacity:1;fill-rule:nonzero;stroke:none"
         id="path4631" />
      <path
         id="path4635"
         style="fill:none;stroke:#000000;stroke-width:0.42763871;stroke-linecap:round;stroke-linejoin:round;stroke-miterlimit:4.46154022;stroke-opacity:1;stroke-dasharray:none"
         d="m 169.97946,395.82518 13.72213,0 -2.14137,2.49357 -9.44025,0 -2.14051,-2.49357 z"
         inkscape:connector-curvature="0" />
      <path
         inkscape:connector-curvature="0"
         d="m 186.161,395.827 13.724,0 -2.139,2.495 -9.441,0 -2.144,-2.495"
         style="fill:#ffffff;fill-opacity:1;fill-rule:nonzero;stroke:none"
         id="path4637" />
      <path
         id="path4641"
         style="fill:none;stroke:#000000;stroke-width:0.42763871;stroke-linecap:round;stroke-linejoin:round;stroke-miterlimit:4.46154022;stroke-opacity:1;stroke-dasharray:none"
         d="m 186.16176,395.82518 13.7247,0 -2.14051,2.49357 -9.44025,0 -2.14394,-2.49357 z"
         inkscape:connector-curvature="0" />
      <path
         inkscape:connector-curvature="0"
         d="m 202.89,395.827 13.724,0 -2.141,2.495 -9.44,0 -2.143,-2.495"
         style="fill:#ffffff;fill-opacity:1;fill-rule:nonzero;stroke:none"
         id="path4643" />
      <path
         id="path4647"
         style="fill:none;stroke:#000000;stroke-width:0.42763871;stroke-linecap:round;stroke-linejoin:round;stroke-miterlimit:4.46154022;stroke-opacity:1;stroke-dasharray:none"
         d="m 202.89057,395.82518 13.72471,0 -2.14223,2.49357 -9.43939,0 -2.14309,-2.49357 z"
         inkscape:connector-curvature="0" />
      <path
         inkscape:connector-curvature="0"
         d="m 220.199,395.827 13.722,0 -2.141,2.495 -9.441,0 -2.14,-2.495"
         style="fill:#ffffff;fill-opacity:1;fill-rule:nonzero;stroke:none"
         id="path4649" />
      <path
         id="path4653"
         style="fill:none;stroke:#000000;stroke-width:0.42763871;stroke-linecap:round;stroke-linejoin:round;stroke-miterlimit:4.46154022;stroke-opacity:1;stroke-dasharray:none"
         d="m 220.19769,395.82518 13.72299,0 -2.14137,2.49357 -9.44025,0 -2.14137,-2.49357 z"
         inkscape:connector-curvature="0" />
      <path
         inkscape:connector-curvature="0"
         d="m 237.096,395.827 13.725,0 -2.141,2.495 -9.44,0 -2.144,-2.495"
         style="fill:#ffffff;fill-opacity:1;fill-rule:nonzero;stroke:none"
         id="path4655" />
      <path
         id="path4659"
         style="fill:none;stroke:#000000;stroke-width:0.42763871;stroke-linecap:round;stroke-linejoin:round;stroke-miterlimit:4.46154022;stroke-opacity:1;stroke-dasharray:none"
         d="m 237.09579,395.82518 13.7247,0 -2.14051,2.49357 -9.43939,0 -2.1448,-2.49357 z"
         inkscape:connector-curvature="0" />
      <path
         inkscape:connector-curvature="0"
         d="m 175.903,399.715 0,0.949 c 0.273,-0.182 0.605,-0.271 0.996,-0.268 0.403,-0.003 0.717,0.133 0.939,0.409 0.219,0.271 0.332,0.661 0.334,1.167 l -0.02,0.005 c -0.233,-0.343 -0.586,-0.512 -1.058,-0.512 -0.432,0 -0.788,0.148 -1.067,0.448 -0.286,0.297 -0.426,0.685 -0.424,1.165 -0.002,0.555 0.169,1.001 0.515,1.339 0.345,0.333 0.789,0.503 1.338,0.505 0.56,-0.002 1.007,-0.214 1.342,-0.636 0.33,-0.421 0.497,-1.029 0.499,-1.816 -0.002,-0.936 -0.204,-1.659 -0.604,-2.177 -0.403,-0.52 -0.962,-0.778 -1.681,-0.78 -0.428,0.002 -0.8,0.067 -1.109,0.202 z m 1.519,4.33 c -0.201,0 -0.366,-0.082 -0.493,-0.244 -0.132,-0.161 -0.197,-0.369 -0.194,-0.625 -0.003,-0.265 0.062,-0.476 0.191,-0.628 0.128,-0.153 0.301,-0.229 0.523,-0.227 0.198,-0.002 0.364,0.072 0.488,0.217 0.126,0.144 0.189,0.326 0.192,0.547 -0.003,0.273 -0.068,0.503 -0.199,0.686 -0.134,0.181 -0.303,0.274 -0.508,0.274"
         style="fill:#000000;fill-opacity:1;fill-rule:nonzero;stroke:none"
         id="path4661" />
    </g>
  </g>
</svg>
