<?xml version="1.0" encoding="UTF-8" standalone="no"?>
<!-- Created with Inkscape (http://www.inkscape.org/) -->

<svg
   xmlns:dc="http://purl.org/dc/elements/1.1/"
   xmlns:cc="http://creativecommons.org/ns#"
   xmlns:rdf="http://www.w3.org/1999/02/22-rdf-syntax-ns#"
   xmlns:svg="http://www.w3.org/2000/svg"
   xmlns="http://www.w3.org/2000/svg"
   xmlns:sodipodi="http://sodipodi.sourceforge.net/DTD/sodipodi-0.dtd"
   xmlns:inkscape="http://www.inkscape.org/namespaces/inkscape"
   width="510.02628"
   height="214.99831"
   id="svg12670"
   version="1.1"
   inkscape:version="0.48.5 r10040"
   sodipodi:docname="New document 15">
  <defs
     id="defs12672" />
  <sodipodi:namedview
     id="base"
     pagecolor="#ffffff"
     bordercolor="#666666"
     borderopacity="1.0"
     inkscape:pageopacity="0.0"
     inkscape:pageshadow="2"
     inkscape:zoom="0.55779275"
     inkscape:cx="301.33147"
     inkscape:cy="425.11694"
     inkscape:document-units="px"
     inkscape:current-layer="layer1"
     showgrid="false"
     fit-margin-top="5"
     fit-margin-left="5"
     fit-margin-right="5"
     fit-margin-bottom="5"
     inkscape:window-width="1280"
     inkscape:window-height="778"
     inkscape:window-x="0"
     inkscape:window-y="0"
     inkscape:window-maximized="1" />
  <metadata
     id="metadata12675">
    <rdf:RDF>
      <cc:Work
         rdf:about="">
        <dc:format>image/svg+xml</dc:format>
        <dc:type
           rdf:resource="http://purl.org/dc/dcmitype/StillImage" />
        <dc:title></dc:title>
      </cc:Work>
    </rdf:RDF>
  </metadata>
  <g
     inkscape:label="Layer 1"
     inkscape:groupmode="layer"
     id="layer1"
     transform="translate(-70.715774,-736.29973)">
    <g
       transform="matrix(2.6632526,0,0,-2.6632526,-233.63707,2025.9878)"
       id="g12605">
      <path
         d="m 116.466,405.713 187.121,0 0,76.3566 -187.121,0 0,-76.3566 z"
         style="fill:#ffffff;fill-opacity:1;fill-rule:nonzero;stroke:none"
         id="path11507"
         inkscape:connector-curvature="0" />
      <path
         inkscape:connector-curvature="0"
         id="path11511"
         style="fill:none;stroke:#000000;stroke-width:0.6206587;stroke-linecap:round;stroke-linejoin:round;stroke-miterlimit:4;stroke-opacity:1;stroke-dasharray:none"
         d="m 116.4658,482.07042 187.1197,0 0,-76.35646 -187.1197,0 0,76.35646 z" />
      <path
         d="m 142.342,443.969 c 0,-4.389 -3.54,-7.949 -7.911,-7.949 -4.371,0 -7.913,3.56 -7.913,7.949 0,4.39 3.542,7.946 7.913,7.946 4.371,0 7.911,-3.556 7.911,-7.946 z m -0.819,-12.342 -14.185,0 -7.093,12.342 7.093,12.34 14.185,0 7.092,-12.34"
         style="fill:#ffffff;fill-opacity:1;fill-rule:nonzero;stroke:none"
         id="path11513"
         inkscape:connector-curvature="0" />
      <path
         inkscape:connector-curvature="0"
         id="path11517"
         style="fill:none;stroke:#000000;stroke-width:0.6206587;stroke-linecap:round;stroke-linejoin:round;stroke-miterlimit:4;stroke-opacity:1;stroke-dasharray:none"
         d="m 142.34143,443.97037 c 0,-4.38903 -3.53988,-7.94816 -7.90985,-7.94816 -4.37297,0 -7.91285,3.55913 -7.91285,7.94816 0,4.38903 3.53988,7.94615 7.91285,7.94615 4.36997,0 7.90985,-3.55712 7.90985,-7.94615 z m -0.81912,-12.3412 -14.18446,0 -7.09272,12.3412 7.09272,12.33819 14.18446,0 7.09373,-12.33819 -7.09373,-12.3412 z" />
      <path
         d="m 293.711,443.969 c 0,-4.389 -3.544,-7.949 -7.913,-7.949 -4.369,0 -7.91,3.56 -7.91,7.949 0,4.39 3.541,7.946 7.91,7.946 4.369,0 7.913,-3.556 7.913,-7.946 z m -0.82,-12.342 -14.184,0 -7.093,12.342 7.093,12.34 14.184,0 7.09,-12.34"
         style="fill:#ffffff;fill-opacity:1;fill-rule:nonzero;stroke:none"
         id="path11519"
         inkscape:connector-curvature="0" />
      <path
         inkscape:connector-curvature="0"
         id="path11523"
         style="fill:none;stroke:#000000;stroke-width:0.6206587;stroke-linecap:round;stroke-linejoin:round;stroke-miterlimit:4;stroke-opacity:1;stroke-dasharray:none"
         d="m 293.71016,443.97037 c 0,-4.38903 -3.54387,-7.94816 -7.91285,-7.94816 -4.36798,0 -7.90886,3.55913 -7.90886,7.94816 0,4.38903 3.54088,7.94615 7.90886,7.94615 4.36898,0 7.91285,-3.55712 7.91285,-7.94615 z m -0.81913,-12.3412 -14.18346,0 -7.09372,12.3412 7.09372,12.33819 14.18346,0 7.09074,-12.33819 -7.09074,-12.3412 z" />
      <path
         d="m 173.346,467.884 c -6.317,0 -11.647,-5.223 -11.146,-9.982 l 2.664,-25.314 0,-0.061 c 0.875,-7.356 5.225,-12.038 10.239,-12.229 -0.01,0 0.072,0 0.121,0 0.024,0 0.018,0 0.06,0 l 68.63,0.061 c 3.689,0.002 5.802,1.005 7.511,2.737 1.702,1.722 3.15,4.676 3.635,9.37 l 0,0.061 2.545,25.314 c 0,0.022 0,0.043 0,0.061 0.488,4.838 -4.817,9.982 -11.144,9.982 l -73.115,0"
         style="fill:#ffffff;fill-opacity:1;fill-rule:nonzero;stroke:none"
         id="path11525"
         inkscape:connector-curvature="0" />
      <path
         inkscape:connector-curvature="0"
         id="path11529"
         style="fill:none;stroke:#000000;stroke-width:0.6206587;stroke-linecap:round;stroke-linejoin:round;stroke-miterlimit:4;stroke-opacity:1;stroke-dasharray:none"
         d="m 173.3453,467.88501 c -6.31551,0 -11.64628,-5.22093 -11.14443,-9.98181 l 2.66389,-25.31383 0,-0.0611 c 0.87399,-7.35681 5.22401,-12.03851 10.23751,-12.22995 -0.009,0 0.0728,0 0.12172,0 0.024,0 0.018,0 0.0599,0 l 68.63055,0.0611 c 3.68953,0.003 5.80269,1.0063 7.51177,2.73826 1.70109,1.72193 3.14977,4.67669 3.63366,9.37041 l 0,0.0601 2.54516,25.31383 c 0,0.022 0,0.0431 0,0.0611 0.48688,4.83906 -4.81595,9.98181 -11.14443,9.98181 l -73.11526,0 z" />
      <path
         d="m 186.905,456.057 c 0,-2.158 -1.742,-3.908 -3.893,-3.908 -2.149,0 -3.891,1.75 -3.891,3.908 0,2.161 1.742,3.911 3.891,3.911 2.151,0 3.893,-1.75 3.893,-3.911 z m 13.808,0 c 0,-2.158 -1.742,-3.908 -3.889,-3.908 -2.149,0 -3.89,1.75 -3.89,3.908 0,2.161 1.741,3.911 3.89,3.911 2.147,0 3.889,-1.75 3.889,-3.911 z m 13.812,0 c 0,-2.158 -1.742,-3.908 -3.891,-3.908 -2.151,0 -3.892,1.75 -3.892,3.908 0,2.161 1.741,3.911 3.892,3.911 2.149,0 3.891,-1.75 3.891,-3.911 z m 13.872,0 c 0,-2.158 -1.741,-3.908 -3.892,-3.908 -2.15,0 -3.891,1.75 -3.891,3.908 0,2.161 1.741,3.911 3.891,3.911 2.151,0 3.892,-1.75 3.892,-3.911 z m 13.81,0 c 0,-2.158 -1.743,-3.908 -3.892,-3.908 -2.147,0 -3.889,1.75 -3.889,3.908 0,2.161 1.742,3.911 3.889,3.911 2.149,0 3.892,-1.75 3.892,-3.911 z m -55.302,-24.439 c 0,-2.159 -1.742,-3.909 -3.893,-3.909 -2.149,0 -3.891,1.75 -3.891,3.909 0,2.157 1.742,3.91 3.891,3.91 2.151,0 3.893,-1.753 3.893,-3.91 z m 13.808,0 c 0,-2.159 -1.742,-3.909 -3.889,-3.909 -2.149,0 -3.89,1.75 -3.89,3.909 0,2.157 1.741,3.91 3.89,3.91 2.147,0 3.889,-1.753 3.889,-3.91 z m 13.812,0 c 0,-2.159 -1.742,-3.909 -3.891,-3.909 -2.151,0 -3.892,1.75 -3.892,3.909 0,2.157 1.741,3.91 3.892,3.91 2.149,0 3.891,-1.753 3.891,-3.91 z m 13.872,0 c 0,-2.159 -1.741,-3.909 -3.892,-3.909 -2.15,0 -3.891,1.75 -3.891,3.909 0,2.157 1.741,3.91 3.891,3.91 2.151,0 3.892,-1.753 3.892,-3.91 z m 13.81,0 c 0,-2.159 -1.743,-3.909 -3.892,-3.909 -2.147,0 -3.889,1.75 -3.889,3.909 0,2.157 1.742,3.91 3.889,3.91 2.149,0 3.892,-1.753 3.892,-3.91 z m -48.322,12.348 c 0,-2.156 -1.741,-3.909 -3.89,-3.909 -2.15,0 -3.893,1.753 -3.893,3.909 0,2.159 1.743,3.91 3.893,3.91 2.149,0 3.89,-1.751 3.89,-3.91 z m 13.812,0 c 0,-2.156 -1.745,-3.909 -3.892,-3.909 -2.149,0 -3.891,1.753 -3.891,3.909 0,2.159 1.742,3.91 3.891,3.91 2.147,0 3.892,-1.751 3.892,-3.91 z m 13.81,0 c 0,-2.156 -1.741,-3.909 -3.892,-3.909 -2.15,0 -3.892,1.753 -3.892,3.909 0,2.159 1.742,3.91 3.892,3.91 2.151,0 3.892,-1.751 3.892,-3.91 z m 13.872,0 c 0,-2.156 -1.741,-3.909 -3.892,-3.909 -2.149,0 -3.891,1.753 -3.891,3.909 0,2.159 1.742,3.91 3.891,3.91 2.151,0 3.892,-1.751 3.892,-3.91 z m 13.808,0 c 0,-2.156 -1.741,-3.909 -3.888,-3.909 -2.149,0 -3.892,1.753 -3.892,3.909 0,2.159 1.743,3.91 3.892,3.91 2.147,0 3.888,-1.751 3.888,-3.91"
         style="fill:#ffffff;fill-opacity:1;fill-rule:nonzero;stroke:none"
         id="path11531"
         inkscape:connector-curvature="0" />
      <path
         inkscape:connector-curvature="0"
         id="path11535"
         style="fill:none;stroke:#000000;stroke-width:0.6206587;stroke-linecap:round;stroke-linejoin:round;stroke-miterlimit:4;stroke-opacity:1;stroke-dasharray:none"
         d="m 186.90419,456.05999 c 0,-2.15993 -1.742,-3.90993 -3.89207,-3.90993 -2.14907,0 -3.89107,1.75 -3.89107,3.90993 0,2.15994 1.742,3.90993 3.89107,3.90993 2.15007,0 3.89207,-1.74999 3.89207,-3.90993 z m 13.80833,0 c 0,-2.15993 -1.74201,-3.90993 -3.88908,-3.90993 -2.14907,0 -3.89108,1.75 -3.89108,3.90993 0,2.15994 1.74201,3.90993 3.89108,3.90993 2.14707,0 3.88908,-1.74999 3.88908,-3.90993 z m 13.8133,0 c 0,-2.15993 -1.743,-3.90993 -3.89207,-3.90993 -2.15106,0 -3.89207,1.75 -3.89207,3.90993 0,2.15994 1.74101,3.90993 3.89207,3.90993 2.14907,0 3.89207,-1.74999 3.89207,-3.90993 z m 13.87018,0 c 0,-2.15993 -1.74001,-3.90993 -3.89007,-3.90993 -2.15107,0 -3.89108,1.75 -3.89108,3.90993 0,2.15994 1.74001,3.90993 3.89108,3.90993 2.15006,0 3.89007,-1.74999 3.89007,-3.90993 z m 13.81132,0 c 0,-2.15993 -1.74201,-3.90993 -3.89208,-3.90993 -2.14707,0 -3.88907,1.75 -3.88907,3.90993 0,2.15994 1.742,3.90993 3.88907,3.90993 2.15007,0 3.89208,-1.74999 3.89208,-3.90993 z m -55.30313,-24.43984 c 0,-2.15993 -1.742,-3.90893 -3.89207,-3.90893 -2.14907,0 -3.89107,1.749 -3.89107,3.90893 0,2.15593 1.742,3.90793 3.89107,3.90793 2.15007,0 3.89207,-1.752 3.89207,-3.90793 z m 13.80833,0 c 0,-2.15993 -1.74201,-3.90893 -3.88908,-3.90893 -2.14907,0 -3.89108,1.749 -3.89108,3.90893 0,2.15593 1.74201,3.90793 3.89108,3.90793 2.14707,0 3.88908,-1.752 3.88908,-3.90793 z m 13.8133,0 c 0,-2.15993 -1.743,-3.90893 -3.89207,-3.90893 -2.15106,0 -3.89207,1.749 -3.89207,3.90893 0,2.15593 1.74101,3.90793 3.89207,3.90793 2.14907,0 3.89207,-1.752 3.89207,-3.90793 z m 13.87018,0 c 0,-2.15993 -1.74001,-3.90893 -3.89007,-3.90893 -2.15107,0 -3.89108,1.749 -3.89108,3.90893 0,2.15593 1.74001,3.90793 3.89108,3.90793 2.15006,0 3.89007,-1.752 3.89007,-3.90793 z m 13.81132,0 c 0,-2.15993 -1.74201,-3.90893 -3.89208,-3.90893 -2.14707,0 -3.88907,1.749 -3.88907,3.90893 0,2.15593 1.742,3.90793 3.88907,3.90793 2.15007,0 3.89208,-1.752 3.89208,-3.90793 z m -48.32114,12.34721 c 0,-2.15693 -1.74201,-3.90893 -3.89207,-3.90893 -2.15007,0 -3.89207,1.752 -3.89207,3.90893 0,2.15994 1.742,3.90893 3.89207,3.90893 2.15006,0 3.89207,-1.74899 3.89207,-3.90893 z m 13.81131,0 c 0,-2.15693 -1.745,-3.90893 -3.89207,-3.90893 -2.14907,0 -3.89107,1.752 -3.89107,3.90893 0,2.15994 1.742,3.90893 3.89107,3.90893 2.14707,0 3.89207,-1.74899 3.89207,-3.90893 z m 13.80832,0 c 0,-2.15693 -1.74001,-3.90893 -3.89107,-3.90893 -2.14907,0 -3.89008,1.752 -3.89008,3.90893 0,2.15994 1.74101,3.90893 3.89008,3.90893 2.15106,0 3.89107,-1.74899 3.89107,-3.90893 z m 13.87317,0 c 0,-2.15693 -1.741,-3.90893 -3.89207,-3.90893 -2.14907,0 -3.89107,1.752 -3.89107,3.90893 0,2.15994 1.742,3.90893 3.89107,3.90893 2.15107,0 3.89207,-1.74899 3.89207,-3.90893 z m 13.80832,0 c 0,-2.15693 -1.741,-3.90893 -3.88808,-3.90893 -2.14907,0 -3.89107,1.752 -3.89107,3.90893 0,2.15994 1.742,3.90893 3.89107,3.90893 2.14708,0 3.88808,-1.74899 3.88808,-3.90893 z" />
      <path
         d="m 239.306,454.275 -1.961,0 0,0.35 0.782,0 0,2.706 -0.804,-0.24 0,0.38 1.201,0.367 0,-3.213 0.782,0"
         style="fill:#000000;fill-opacity:1;fill-rule:nonzero;stroke:none"
         id="path11537"
         inkscape:connector-curvature="0" />
      <path
         d="m 225.534,454.288 -2.089,0 0,0.355 1.009,1.018 c 0.257,0.255 0.442,0.47 0.553,0.648 0.109,0.169 0.164,0.355 0.167,0.552 -0.003,0.196 -0.06,0.352 -0.173,0.464 -0.117,0.109 -0.281,0.164 -0.489,0.166 -0.311,-0.002 -0.609,-0.132 -0.89,-0.396 l 0,0.418 c 0.271,0.21 0.585,0.314 0.947,0.317 0.305,-0.003 0.551,-0.086 0.729,-0.253 0.176,-0.17 0.264,-0.397 0.266,-0.677 -0.002,-0.225 -0.064,-0.444 -0.184,-0.656 -0.122,-0.216 -0.342,-0.48 -0.66,-0.794 l -0.8,-0.791 0,-0.014 1.614,0"
         style="fill:#000000;fill-opacity:1;fill-rule:nonzero;stroke:none"
         id="path11539"
         inkscape:connector-curvature="0" />
      <path
         d="m 209.633,454.443 0,0.431 c 0.236,-0.192 0.501,-0.285 0.8,-0.283 0.24,-0.002 0.433,0.058 0.581,0.182 0.143,0.12 0.215,0.282 0.218,0.493 -0.003,0.452 -0.327,0.68 -0.968,0.684 l -0.287,0 0,0.336 0.276,0 c 0.571,-0.003 0.858,0.21 0.858,0.641 0,0.392 -0.221,0.589 -0.656,0.592 -0.248,-0.003 -0.478,-0.085 -0.689,-0.248 l 0,0.389 c 0.217,0.129 0.48,0.194 0.788,0.196 0.289,-0.002 0.521,-0.079 0.7,-0.234 0.172,-0.154 0.259,-0.355 0.262,-0.595 -0.003,-0.462 -0.232,-0.756 -0.695,-0.883 l 0,-0.013 c 0.248,-0.027 0.444,-0.115 0.596,-0.264 0.144,-0.151 0.22,-0.34 0.22,-0.564 0,-0.317 -0.112,-0.569 -0.335,-0.76 -0.224,-0.188 -0.521,-0.283 -0.884,-0.286 -0.332,0.003 -0.592,0.064 -0.785,0.186"
         style="fill:#000000;fill-opacity:1;fill-rule:nonzero;stroke:none"
         id="path11541"
         inkscape:connector-curvature="0" />
      <path
         d="m 198.055,455.241 -0.444,0 0,-0.926 -0.393,0 0,0.926 -1.631,0 0,0.259 1.545,2.299 0.479,0 0,-2.236 0.444,0 0,-0.322 z m -0.837,0.322 0,1.506 c -0.004,0.107 0,0.228 0.012,0.363 l -0.012,0 c -0.024,-0.062 -0.07,-0.153 -0.134,-0.268 l -1.064,-1.601"
         style="fill:#000000;fill-opacity:1;fill-rule:nonzero;stroke:none"
         id="path11543"
         inkscape:connector-curvature="0" />
      <path
         d="m 182.039,454.43 0,0.423 c 0.236,-0.158 0.477,-0.234 0.722,-0.231 0.245,-0.003 0.442,0.066 0.593,0.209 0.149,0.137 0.225,0.322 0.227,0.553 -0.002,0.229 -0.078,0.404 -0.229,0.534 -0.155,0.129 -0.376,0.196 -0.66,0.196 -0.1,0 -0.281,-0.013 -0.544,-0.031 l 0,1.747 1.678,0 0,-0.359 -1.304,0 0,-1.021 c 0.106,0.006 0.203,0.01 0.297,0.01 0.369,0 0.656,-0.095 0.859,-0.282 0.202,-0.19 0.305,-0.448 0.305,-0.769 0,-0.341 -0.11,-0.611 -0.327,-0.815 -0.217,-0.203 -0.517,-0.304 -0.897,-0.306 -0.321,0.002 -0.563,0.048 -0.72,0.142"
         style="fill:#000000;fill-opacity:1;fill-rule:nonzero;stroke:none"
         id="path11545"
         inkscape:connector-curvature="0" />
      <path
         d="m 246.188,445.67 0,-0.376 c -0.181,0.088 -0.372,0.133 -0.565,0.135 -0.31,-0.002 -0.557,-0.138 -0.741,-0.411 -0.184,-0.277 -0.278,-0.645 -0.275,-1.107 l 0.008,0 c 0.157,0.329 0.424,0.492 0.796,0.496 0.3,-0.004 0.542,-0.101 0.722,-0.295 0.18,-0.195 0.267,-0.455 0.27,-0.784 -0.003,-0.343 -0.105,-0.623 -0.308,-0.839 -0.209,-0.212 -0.469,-0.318 -0.78,-0.321 -0.352,0.003 -0.623,0.14 -0.823,0.416 -0.199,0.277 -0.299,0.668 -0.297,1.176 -0.002,0.607 0.127,1.093 0.39,1.46 0.258,0.363 0.6,0.544 1.029,0.548 0.238,-0.004 0.433,-0.034 0.574,-0.098 z m -0.865,-1.604 c -0.207,0 -0.374,-0.07 -0.498,-0.209 -0.129,-0.14 -0.194,-0.305 -0.191,-0.493 -0.003,-0.236 0.062,-0.439 0.187,-0.61 0.124,-0.17 0.295,-0.255 0.506,-0.252 0.199,-0.003 0.36,0.07 0.484,0.219 0.121,0.145 0.18,0.331 0.183,0.559 -0.003,0.242 -0.06,0.437 -0.178,0.577 -0.117,0.139 -0.284,0.209 -0.493,0.209"
         style="fill:#000000;fill-opacity:1;fill-rule:nonzero;stroke:none"
         id="path11547"
         inkscape:connector-curvature="0" />
      <path
         d="m 232.603,445.585 -1.373,-3.36 -0.411,0 1.297,3.126 -1.747,0 0,0.359 2.234,0"
         style="fill:#000000;fill-opacity:1;fill-rule:nonzero;stroke:none"
         id="path11549"
         inkscape:connector-curvature="0" />
      <path
         d="m 217.271,444.054 0,0.01 c -0.418,0.191 -0.626,0.474 -0.624,0.843 -0.002,0.25 0.093,0.456 0.285,0.617 0.188,0.161 0.432,0.24 0.735,0.244 0.271,-0.004 0.492,-0.077 0.667,-0.225 0.17,-0.152 0.258,-0.347 0.261,-0.58 -0.003,-0.39 -0.218,-0.691 -0.641,-0.899 l 0,-0.01 c 0.501,-0.185 0.756,-0.498 0.758,-0.944 -0.002,-0.289 -0.105,-0.52 -0.311,-0.687 -0.206,-0.17 -0.493,-0.252 -0.858,-0.255 -0.3,0.003 -0.545,0.085 -0.736,0.252 -0.194,0.168 -0.29,0.386 -0.286,0.656 -0.004,0.446 0.248,0.772 0.75,0.978 z m 0.919,0.859 c -0.004,0.158 -0.052,0.283 -0.152,0.378 -0.1,0.091 -0.236,0.136 -0.407,0.138 -0.165,-0.002 -0.304,-0.05 -0.412,-0.145 -0.115,-0.097 -0.169,-0.218 -0.167,-0.367 -0.002,-0.304 0.185,-0.532 0.563,-0.684 0.382,0.155 0.571,0.383 0.575,0.68 z m -0.6,-1.05 c -0.446,-0.18 -0.667,-0.435 -0.665,-0.769 -0.002,-0.173 0.061,-0.315 0.195,-0.425 0.127,-0.115 0.296,-0.17 0.507,-0.167 0.197,-0.003 0.36,0.052 0.487,0.165 0.124,0.105 0.188,0.245 0.19,0.415 -0.002,0.346 -0.242,0.605 -0.714,0.781"
         style="fill:#000000;fill-opacity:1;fill-rule:nonzero;stroke:none"
         id="path11551"
         inkscape:connector-curvature="0" />
      <path
         d="m 202.893,442.283 0,0.386 c 0.194,-0.115 0.396,-0.17 0.614,-0.167 0.311,-0.003 0.557,0.124 0.731,0.38 0.174,0.254 0.26,0.616 0.264,1.087 -0.004,-0.003 -0.006,-0.003 -0.01,0 -0.147,-0.3 -0.404,-0.449 -0.774,-0.449 -0.297,0 -0.541,0.1 -0.732,0.303 -0.19,0.201 -0.283,0.463 -0.283,0.782 0,0.34 0.103,0.615 0.311,0.834 0.208,0.216 0.477,0.325 0.804,0.329 0.343,-0.004 0.608,-0.137 0.798,-0.408 0.19,-0.273 0.285,-0.667 0.288,-1.185 -0.003,-0.643 -0.127,-1.139 -0.372,-1.484 -0.251,-0.347 -0.597,-0.52 -1.035,-0.523 -0.236,0.003 -0.434,0.039 -0.604,0.115 z m 0.889,3.146 c -0.194,-0.002 -0.354,-0.074 -0.48,-0.218 -0.128,-0.145 -0.191,-0.328 -0.191,-0.55 0,-0.246 0.06,-0.439 0.187,-0.579 0.121,-0.143 0.293,-0.213 0.511,-0.211 0.187,-0.002 0.345,0.062 0.475,0.193 0.128,0.127 0.19,0.285 0.194,0.47 -0.004,0.262 -0.066,0.477 -0.194,0.645 -0.13,0.166 -0.297,0.248 -0.502,0.25"
         style="fill:#000000;fill-opacity:1;fill-rule:nonzero;stroke:none"
         id="path11553"
         inkscape:connector-curvature="0" />
      <path
         d="m 189.611,442.213 -1.963,0 0,0.35 0.782,0 0,2.705 -0.804,-0.238 0,0.379 1.201,0.367 0,-3.213 0.784,0 0,-0.35 z m 1.582,-0.058 c -0.346,0.004 -0.615,0.149 -0.806,0.445 -0.193,0.295 -0.288,0.722 -0.288,1.285 0,0.612 0.101,1.078 0.3,1.397 0.199,0.312 0.49,0.47 0.87,0.473 0.726,-0.003 1.088,-0.598 1.088,-1.786 0,-0.592 -0.102,-1.042 -0.307,-1.349 -0.206,-0.308 -0.493,-0.461 -0.857,-0.465 z m 0.056,3.263 c -0.499,-0.003 -0.747,-0.507 -0.744,-1.513 -0.003,-0.946 0.241,-1.418 0.728,-1.416 0.478,-0.002 0.718,0.478 0.72,1.44 -0.002,0.99 -0.239,1.486 -0.704,1.489"
         style="fill:#000000;fill-opacity:1;fill-rule:nonzero;stroke:none"
         id="path11555"
         inkscape:connector-curvature="0" />
      <path
         d="m 237.973,429.835 -1.962,0 0,0.351 0.784,0 0,2.705 -0.806,-0.239 0,0.379 1.2,0.368 0,-3.213 0.784,0 0,-0.351 z m 2.67,0 -1.963,0 0,0.351 0.784,0 0,2.705 -0.804,-0.239 0,0.379 1.201,0.368 0,-3.213 0.782,0"
         style="fill:#000000;fill-opacity:1;fill-rule:nonzero;stroke:none"
         id="path11557"
         inkscape:connector-curvature="0" />
      <path
         d="m 224.179,429.835 -1.962,0 0,0.351 0.783,0 0,2.705 -0.804,-0.239 0,0.379 1.2,0.368 0,-3.213 0.783,0 0,-0.351 z m 2.604,0 -2.089,0 0,0.356 1.009,1.017 c 0.257,0.256 0.442,0.472 0.553,0.647 0.11,0.17 0.164,0.355 0.167,0.553 -0.003,0.198 -0.061,0.353 -0.173,0.465 -0.117,0.11 -0.282,0.164 -0.489,0.167 -0.312,-0.003 -0.607,-0.134 -0.89,-0.398 l 0,0.419 c 0.269,0.21 0.584,0.313 0.947,0.317 0.305,-0.004 0.55,-0.085 0.729,-0.253 0.175,-0.17 0.263,-0.398 0.266,-0.677 -0.003,-0.225 -0.063,-0.443 -0.184,-0.657 -0.122,-0.214 -0.343,-0.478 -0.661,-0.792 l -0.8,-0.793 0,-0.012 1.615,0"
         style="fill:#000000;fill-opacity:1;fill-rule:nonzero;stroke:none"
         id="path11559"
         inkscape:connector-curvature="0" />
      <path
         d="m 210.321,429.866 -1.961,0 0,0.35 0.783,0 0,2.705 -0.805,-0.239 0,0.379 1.201,0.368 0,-3.213 0.782,0 0,-0.35 z m 0.603,0.128 0,0.43 c 0.235,-0.19 0.502,-0.285 0.802,-0.281 0.238,-0.004 0.431,0.057 0.579,0.182 0.143,0.119 0.215,0.282 0.217,0.492 -0.002,0.452 -0.326,0.68 -0.967,0.683 l -0.287,0 0,0.337 0.275,0 c 0.573,-0.003 0.859,0.21 0.859,0.641 0,0.392 -0.22,0.59 -0.656,0.592 -0.248,-0.002 -0.478,-0.085 -0.689,-0.249 l 0,0.389 c 0.217,0.13 0.48,0.194 0.789,0.197 0.286,-0.003 0.519,-0.078 0.699,-0.232 0.172,-0.156 0.259,-0.357 0.262,-0.596 -0.003,-0.463 -0.232,-0.757 -0.695,-0.885 l 0,-0.011 c 0.247,-0.029 0.444,-0.116 0.595,-0.265 0.145,-0.152 0.222,-0.341 0.222,-0.565 0,-0.316 -0.113,-0.568 -0.336,-0.758 -0.224,-0.19 -0.521,-0.284 -0.883,-0.288 -0.332,0.004 -0.593,0.065 -0.786,0.187"
         style="fill:#000000;fill-opacity:1;fill-rule:nonzero;stroke:none"
         id="path11561"
         inkscape:connector-curvature="0" />
      <path
         d="m 196.422,429.835 -1.962,0 0,0.351 0.784,0 0,2.705 -0.806,-0.239 0,0.379 1.201,0.368 0,-3.213 0.783,0 0,-0.351 z m 2.782,0.927 -0.444,0 0,-0.927 -0.394,0 0,0.927 -1.628,0 0,0.259 1.544,2.299 0.478,0 0,-2.236 0.444,0 0,-0.322 z m -0.838,0.322 0,1.507 c -0.002,0.105 0,0.227 0.013,0.361 l -0.013,0 c -0.024,-0.061 -0.07,-0.152 -0.132,-0.267 l -1.066,-1.601"
         style="fill:#000000;fill-opacity:1;fill-rule:nonzero;stroke:none"
         id="path11563"
         inkscape:connector-curvature="0" />
      <path
         d="m 182.692,429.866 -1.962,0 0,0.35 0.783,0 0,2.705 -0.804,-0.239 0,0.379 1.2,0.368 0,-3.213 0.783,0 0,-0.35 z m 0.678,0.086 0,0.422 c 0.235,-0.158 0.476,-0.235 0.722,-0.231 0.245,-0.004 0.442,0.067 0.593,0.209 0.147,0.136 0.223,0.322 0.227,0.553 -0.004,0.227 -0.08,0.404 -0.231,0.534 -0.153,0.128 -0.374,0.195 -0.659,0.195 -0.099,0 -0.28,-0.012 -0.544,-0.03 l 0,1.746 1.678,0 0,-0.359 -1.303,0 0,-1.02 c 0.106,0.006 0.203,0.009 0.297,0.009 0.369,0 0.656,-0.094 0.857,-0.282 0.204,-0.189 0.307,-0.447 0.307,-0.768 0,-0.341 -0.11,-0.611 -0.327,-0.815 -0.217,-0.204 -0.517,-0.304 -0.899,-0.308 -0.319,0.004 -0.561,0.05 -0.718,0.145"
         style="fill:#000000;fill-opacity:1;fill-rule:nonzero;stroke:none"
         id="path11565"
         inkscape:connector-curvature="0" />
      <path
         d="m 302.88,481.721 0,-75.72"
         style="fill:none;stroke:#000000;stroke-width:0.75;stroke-linecap:round;stroke-linejoin:round;stroke-miterlimit:10;stroke-opacity:1;stroke-dasharray:none"
         id="path12083"
         inkscape:connector-curvature="0" />
    </g>
  </g>
</svg>
